<svg id="SPEC" xmlns="http://www.w3.org/2000/svg" xmlns:xlink="http://www.w3.org/1999/xlink" viewBox="0 0 161.12 44"><defs><style>.cls-1{fill:#40474f;}.cls-2{fill:url(#radial-gradient);}.cls-3{fill:#333;}</style><radialGradient id="radial-gradient" cx="-535.18" cy="1700.31" r="46.5" gradientTransform="matrix(0.88, 0, 0, -0.88, 489.49, 1533.69)" gradientUnits="userSpaceOnUse"><stop offset="0.05" stop-color="#efac00"/><stop offset="0.17" stop-color="#eb9100"/><stop offset="0.4" stop-color="#e15600"/><stop offset="0.63" stop-color="#c82400"/><stop offset="0.72" stop-color="#b91200"/><stop offset="0.81" stop-color="#ae0500"/><stop offset="0.9" stop-color="#a00"/></radialGradient></defs><title>holacdn</title><path class="cls-1" d="M98,26.39c0.1-.9.5-8.1,0.9-10.8a3.5,3.5,0,0,1,2-3,3.23,3.23,0,0,1,3.4.6,2.64,2.64,0,0,1,.7,1.9,7.06,7.06,0,0,1-.2,2.5c-0.3,1.8-1.9,8.7-2.4,10.4a3.68,3.68,0,0,1-1.1,1.9,1.82,1.82,0,0,1-2,.2c-1-.4-1.2-1.4-1.3-2.4a3.41,3.41,0,0,1,0-1.3h0Zm-1.9,9a3.23,3.23,0,0,1,1.5-3.3,3.14,3.14,0,0,1,4,.8,3,3,0,0,1,.1,3.7,2.94,2.94,0,0,1-1.8,1,2.34,2.34,0,0,1-1.1.2A3.09,3.09,0,0,1,96.06,35.39Z"/><path class="cls-1" d="M80.37,35.39a4.69,4.69,0,0,1-1.7-3.8,4.55,4.55,0,0,1,1.8-3.6c1.3-1,2.6-1,4.3-1s2.3,0,3.9-.1l1.2-.1v-0.1a2.77,2.77,0,0,0-.1-0.9c-0.1-.7-1.6-1.7-3.3-1.5a5.9,5.9,0,0,0-2,.9c-2.9,1.5-3.9-1.6-3-2.7a5.24,5.24,0,0,1,3.9-1.9,12.37,12.37,0,0,1,4.7.5,6.72,6.72,0,0,1,3.7,2.2c1,1.2,1,2.9.9,4.4-0.2,1.7-.7,3.4-1,5.1a20.89,20.89,0,0,0-.1,2.5,3.32,3.32,0,0,1-.3,2.2,2.25,2.25,0,0,1-3.6,0c-0.3-.5-0.6-1-0.9-1.6a9.13,9.13,0,0,1-5,1A8.26,8.26,0,0,1,80.37,35.39Zm3.2-3.7a1.67,1.67,0,0,0,1.6,1.7,3.47,3.47,0,0,0,2.9-.7,4.82,4.82,0,0,0,1.2-2.6c-1.2.1-3.2,0.1-3.7,0.1C85,30.39,83.67,30.59,83.57,31.69Z"/><path class="cls-1" d="M71.27,19.69a16.27,16.27,0,0,1-.1-2.4,2.44,2.44,0,0,1,2.2-2.4,2.56,2.56,0,0,1,2.6,2c0.1,0.6.1,1.6,0.2,2.4,0,0,1.2,14.39,1.2,15a2.7,2.7,0,0,1-2.2,3c-2.2.1-2.6-1.6-2.8-2.6Z"/><path class="cls-1" d="M69.57,30.09c-0.5,2.6-1.6,4.9-4,6.2a8.79,8.79,0,0,1-7.9-.1,8.07,8.07,0,0,1-3-2.8,7.35,7.35,0,0,1-1-4.5,8.71,8.71,0,0,1,3.4-6.8c2.2-1.6,5.4-1.6,7.9-.7a7.47,7.47,0,0,1,3.3,2.5,7.14,7.14,0,0,1,1.4,4.3c0,0.9-.2,2.2-0.1,1.9h0Zm-4.7-.7a5.79,5.79,0,0,0-.5-3.5,3.14,3.14,0,0,0-3.4-1.1,4.06,4.06,0,0,0-2.3,3.1,5.8,5.8,0,0,0,.5,4.3,3,3,0,0,0,4.3.4,6.12,6.12,0,0,0,1.5-3.7,0.75,0.75,0,0,0-.1.5h0Z"/><path class="cls-1" d="M49.48,21.59a6.31,6.31,0,0,1,1.9,3.7c0.3,1.7.8,7,.9,7.8a3.62,3.62,0,0,1-.3,2.3,2.54,2.54,0,0,1-3.1,1.1c-1.4-.6-1.5-2.4-1.6-3.6-0.2-1.8-.3-3.5-0.5-5.2-0.2-1.4-.5-3.2-2.2-3.1a3,3,0,0,0-2.6,2,7.94,7.94,0,0,0-.1,2.2c0.1,0.9.4,4.1,0.5,4.9a11.48,11.48,0,0,1,.1,1.9,2.56,2.56,0,0,1-2.4,2.2,2.27,2.27,0,0,1-1.6-.6,4.19,4.19,0,0,1-.9-1.9c-0.3-1.7-1.4-14.19-1.7-15.89A4.89,4.89,0,0,1,36,17a2.34,2.34,0,0,1,1.2-1.2,2.51,2.51,0,0,1,1.9-.1,2.32,2.32,0,0,1,1.4,1.5,48.79,48.79,0,0,1,.7,5.3,5.47,5.47,0,0,1,1.1-1C44.48,20.09,47.58,19.89,49.48,21.59Z"/><path id="Body" class="cls-2" d="M31.19,27.29a33.18,33.18,0,0,0-1.8-10.6c-0.9-2.6.9-5.7,0.9-5.7s-0.9.1-2.8,1.8a6.52,6.52,0,0,0-2,4.2c-2.4-5.5-7.2-9.1-9-11.5S16,0,16,0c-3.6,1.6-5.4,5.4-6,10a8.23,8.23,0,0,1-3.5,6.3C6,12,1.1,11,1.1,11c1,0.3,2.8,5.2.9,8.9a17.15,17.15,0,0,0-2,7.5c0,8.4,5.4,15.29,15.49,15.29A15.11,15.11,0,0,0,31.19,27.29Z"/><ellipse class="cls-3" cx="21.09" cy="25.39" rx="2.2" ry="3.1"/><ellipse class="cls-3" cx="10" cy="25.39" rx="2.2" ry="3.1"/><path class="cls-3" d="M15.49,40.38A11.37,11.37,0,0,1,4,29.19a1,1,0,0,1,1-1,0.94,0.94,0,0,1,1,1,9.45,9.45,0,0,0,9.5,9.3,9.39,9.39,0,0,0,9.5-9.3,1,1,0,0,1,1-1,0.94,0.94,0,0,1,1,1A11.31,11.31,0,0,1,15.49,40.38Z"/><path class="cls-1" d="M123.93,18.9a1.84,1.84,0,0,1-.08.49L118,36.9c-0.14.44-.74,0.57-1.52,0.57H115c-0.79,0-1.39-.14-1.52-0.57l-5.88-17.5a2,2,0,0,1-.11-0.49c0-.38.52-0.6,1.66-0.6h0.9a1.47,1.47,0,0,1,1.61.79l3.67,11.79,0.3,1h0.11l0.3-1,3.78-11.79a1.5,1.5,0,0,1,1.61-.79h0.84C123.44,18.3,123.93,18.52,123.93,18.9Z"/><path class="cls-1" d="M139.34,24.32c0,5.25-4.74,6-6.21,6h-2.89V36.6c0,0.57-.49.87-1.63,0.87h-0.93c-1.14,0-1.63-.3-1.63-0.87V19.45a0.94,0.94,0,0,1,1.09-1.09h5.72C135.28,18.36,139.34,19.07,139.34,24.32Zm-9.09-2.4v4.76h2.42A2.14,2.14,0,0,0,135,24.32a2.16,2.16,0,0,0-2.37-2.4h-2.42Z"/><path class="cls-1" d="M157.39,19.18V36.6c0,0.57-.49.87-1.63,0.87h-1a1.87,1.87,0,0,1-1.8-.74l-7.29-11.16v11c0,0.57-.49.87-1.63,0.87h-0.79c-1.14,0-1.63-.3-1.63-0.87V19.18c0-.57.49-0.87,1.63-0.87h1.17a1.87,1.87,0,0,1,1.8.73l6.42,9.91,0.73,1.12V19.18c0-.57.49-0.87,1.63-0.87h0.79C156.9,18.3,157.39,18.6,157.39,19.18Z"/></svg>

